# xmcd
#
# Track frame offsets:
# 150
# 24275
# 48433
# 75657
# 89046
# 106500
# 130692
# 142219
# 160956
# 177238
#
# Disc length: 2629 seconds
#
#
# Revision: 0
# Processed by: cddbd v1.5.1PL0 Copyright (c) Steve Scherf et al.
# Submitted via: FreeRIP 2.92 
#
DISCID=7b0a430a
DTITLE=Yawning Man - Rock Formations
DYEAR=2005
DGENRE=Stoner Rock
TTITLE0=Rock Formations
TTITLE1=Perpetual Oyster
TTITLE2=Stoney Lonesome
TTITLE3=Split Tooth Thunder
TTITLE4=Sonny Bono Memorial Freeway
TTITLE5=Airport Boulevard
TTITLE6=Advanced Darknuss
TTITLE7=She Scares Me
TTITLE8=Crater Lake
TTITLE9=Buffalo Chips
EXTD=
EXTT0=
EXTT1=
EXTT2=
EXTT3=
EXTT4=
EXTT5=
EXTT6=
EXTT7=
EXTT8=
EXTT9=
PLAYORDER=
